<svg width="63" height="55" viewBox="0 0 63 55" fill="none" xmlns="http://www.w3.org/2000/svg">
<g clip-path="url(#clip0)">
<path d="M35.2199 18.0254C35.2199 16.2637 33.7012 16.0488 32.2686 16.0488L28.057 16.0166V23.4609H29.8235V20.7646H31.7623C33.7443 20.7646 33.3242 21.8711 33.3565 23.4609H35.1445V22.0107C35.1445 21.0225 34.983 20.3887 33.9597 20.0342C34.7568 19.7119 35.2307 18.8848 35.2199 18.0254ZM32.0531 19.2393H29.8235V17.5957H32.0855C32.6348 17.5957 33.238 17.7031 33.238 18.3906C33.238 19.0996 32.6671 19.2393 32.0531 19.2393ZM30.2543 28.8535H24.5778L22.3158 31.3027L20.1077 28.8535H12.9447L12.934 36.2979H19.9784L22.2727 33.8271L24.4701 36.2979H27.9385L27.9493 33.7949C29.985 33.7949 33.2595 34.2891 33.2595 31.292C33.2595 29.4336 31.9347 28.8535 30.2543 28.8535ZM19.0736 34.7295H14.7005V33.2471H18.6105V31.7324H14.7005V30.3896H19.1921L21.1202 32.5596L19.0736 34.7295ZM26.1612 35.6104L23.4361 32.5918L26.1612 29.6484V35.6104ZM30.2328 32.2803H27.9493V30.3896H30.2651C30.8683 30.3896 31.3638 30.6367 31.3638 31.292C31.3638 31.9795 30.8683 32.2803 30.2328 32.2803ZM26.829 17.5957V16.0273H20.8509V23.4717H26.829V21.9355H22.639V20.4531H26.7105V18.9385H22.639V17.5957H26.829ZM62.2453 27.4355H62.2238H62.2453ZM41.2842 30.8623C41.2842 29.1006 39.7654 28.8535 38.3652 28.8535H34.1213L34.1105 36.2979H35.8985L35.9093 33.5801H37.8051C38.9899 33.5801 39.3992 33.7949 39.3992 35.0625L39.3884 36.2979H41.1765L41.1873 34.8154C41.1873 33.8594 40.9934 33.1934 40.0024 32.8389C40.8318 32.5059 41.2734 31.6787 41.2842 30.8623ZM38.139 32.0654H35.9093V30.3896H38.1713C38.7206 30.3896 39.3238 30.4971 39.3238 31.1846C39.3238 31.9258 38.7422 32.0654 38.139 32.0654ZM19.526 23.4717V16.0273H16.5531L14.4312 21.0762L12.0938 16.0273H9.17476V23.085L6.148 16.0273H3.50902L0.309921 23.4717H2.238L2.92736 21.8281H6.64349L7.33285 23.4717H10.9736V17.6494L13.5587 23.4717H15.1313L17.7165 17.6494V23.4717H19.526ZM3.56287 20.2812L4.76927 17.3164L6.00798 20.2812H3.56287ZM54.9854 37.3506V36.8672C53.8221 37.4688 54.5653 37.3506 38.1067 37.3506C38.1067 34.6436 38.1174 34.7832 38.1067 34.6436C37.9235 34.6328 37.762 34.6328 37.0941 34.6328C37.0941 36.5557 37.0834 35.3633 37.0834 37.3506H32.8179C32.8179 36.0508 32.8287 35.707 32.8287 34.2139C31.7515 34.8584 30.3728 34.9014 29.1341 34.8799C29.1341 36.459 29.1233 35.7715 29.1233 37.3506H23.8561C23.3068 36.7383 23.5653 37.0176 22.1973 35.4814C21.8527 35.8574 20.8186 36.9746 20.4632 37.3506H11.6306V27.4355H20.5816C21.1202 28.0371 20.8832 27.7686 22.2512 29.2832C22.5959 28.9072 23.5653 27.8438 23.9423 27.4355H30.1897C31.2453 27.4355 32.1285 27.6396 32.8071 28.0371V27.4355C38.656 27.4355 39.7331 27.2852 40.9611 27.9834V27.4355H49.3843V27.9941C50.6122 27.2529 51.4955 27.4355 56.3749 27.4355V27.9727C57.4843 27.3389 58.1629 27.4141 62.2238 27.4355V8.59375C62.2238 5.74707 59.9079 3.4375 57.0535 3.4375H5.35092C2.49651 3.4375 0.180664 5.74707 0.180664 8.59375V20.3887C1.19317 18.0361 2.30262 15.4473 2.66885 14.5986H6.94508C7.40825 15.6836 7.11743 14.9961 7.91451 16.8652V14.5986H12.8693C13.1817 15.2646 14.065 17.1768 14.3666 17.8213C14.9913 16.3604 15.4545 15.2539 15.7238 14.5986H26.8183C26.8183 14.5879 28.057 14.5986 28.0677 14.5986C32.7748 14.6201 33.8412 14.5127 35.0045 15.168V14.5986H39.3023V15.5977C40.1209 14.9424 41.2304 14.5986 42.6091 14.5986H45.582C45.582 14.6523 45.7866 14.6309 45.8297 14.6309H49.3197C49.772 15.6836 49.5997 15.2754 50.2675 16.8438V14.6309H54.9315C55.4593 15.4902 54.8238 14.4375 56.1379 16.6074V14.6309H60.4357V24.5137H55.9548C55.3732 23.5469 55.804 24.2773 54.533 22.1611V24.5137H48.8457C48.1563 22.9238 48.8349 24.4814 48.1348 22.8701H46.0882C45.6358 23.9443 45.8513 23.4287 45.3989 24.5137H42.5121C41.1873 24.5137 40.1101 24.1914 39.313 23.5576V24.5137H32.1501C32.1178 23.0205 32.1393 21.8496 32.1393 21.8496C31.9454 21.8174 31.7731 21.8281 31.0837 21.8281V24.5244H16.4885V23.2998C16.2192 23.9014 16.1977 23.9336 15.9392 24.5244H12.7616C12.3308 23.5684 12.4493 23.8369 12.2123 23.2998V24.5244H6.51423C6.06183 23.4395 6.27726 23.9551 5.82486 22.8809H3.75676C3.30436 23.9551 3.51979 23.4395 3.06739 24.5244H0.202207V46.4062C0.202207 49.2529 2.51805 51.5625 5.37246 51.5625H57.0858C59.9402 51.5625 62.2561 49.2529 62.2561 46.4062V36.6953C60.8881 37.5869 58.7338 37.3506 54.9854 37.3506ZM58.8954 30.4219H62.1376V28.8535H58.5938C57.2151 28.8535 56.0302 29.5625 56.0302 31.0771C56.0302 34.6221 60.6296 32.4522 60.6296 34.0205C60.6296 34.5684 60.1664 34.708 59.7248 34.708H56.278L56.2672 36.2979H59.714C60.6188 36.2979 61.6098 36.1045 62.1376 35.3418V32.5703C61.0066 31.0879 57.9044 32.4307 57.9044 31.1201C57.9044 30.4971 58.3999 30.4219 58.8954 30.4219ZM52.7557 34.6973H49.2873L49.2766 36.2871H52.7449C54.3391 36.2871 55.567 35.6855 55.567 33.9238C55.567 30.3574 50.9461 32.7207 50.9461 31.0986C50.9461 30.4971 51.4739 30.4111 51.9371 30.4111H55.2116V28.8428H51.6355C50.2568 28.8428 49.1042 29.5518 49.1042 31.0664C49.1042 34.6113 53.7036 32.4092 53.7036 34.0098C53.6928 34.5898 53.1973 34.6973 52.7557 34.6973ZM48.2102 30.3896V28.8535H42.2644L42.2536 36.2979H48.1994L48.2102 34.7617L44.0525 34.7295V33.2471H48.1348V31.7324H44.0632V30.3896H48.2102ZM42.1459 18.7773C42.1136 18.7988 41.9951 19.0137 41.9951 19.5938C41.9951 20.2383 42.0921 20.4209 42.1136 20.4424C42.1352 20.4531 42.2321 20.4961 42.4798 20.4961L43.2661 18.6807C43.1477 18.6807 43.0399 18.6699 42.9322 18.6699C42.329 18.6699 42.1782 18.7451 42.1459 18.7773ZM44.3433 17.6494H44.3325H44.3433ZM42.5983 16.0166C40.067 16.0166 38.9361 17.3057 38.9361 19.8086C38.9361 22.1934 40.0347 23.4609 42.4906 23.4609H44.5587L45.2481 21.8174H48.9427L49.6536 23.4609H53.2835V17.8857L56.6442 23.4609H59.1862V16.0488H57.3659V21.2158L54.2314 16.0488H51.5062V23.0742L48.501 16.0488H45.8297L43.2985 21.9033H42.5014C41.0688 21.9033 40.7672 21.0332 40.7672 19.7656C40.7672 17.209 42.4583 17.6172 44.3325 17.6494V16.0166H42.5983ZM47.1331 17.3164L48.3395 20.2812H45.8836L47.1331 17.3164ZM36.2432 16.0273V23.4717H38.0636V16.0273H36.2432Z" fill="#3C3C3C"/>
</g>
<defs>
<clipPath id="clip0">
<rect width="62.0431" height="55" fill="white" transform="translate(0.202271)"/>
</clipPath>
</defs>
</svg>
