<svg width="63" height="55" viewBox="0 0 63 55" fill="none" xmlns="http://www.w3.org/2000/svg">
<g clip-path="url(#clip0)">
<path d="M50.7502 24.8467C50.7502 24.8467 51.5688 28.8428 51.752 29.6807H48.1543C48.5098 28.7246 49.8777 25.0078 49.8777 25.0078C49.8562 25.04 50.2332 24.0303 50.4486 23.4072L50.7502 24.8467ZM62.1571 8.59375V46.4062C62.1571 49.2529 59.8413 51.5625 56.9868 51.5625H5.28427C2.42986 51.5625 0.114014 49.2529 0.114014 46.4062V8.59375C0.114014 5.74707 2.42986 3.4375 5.28427 3.4375H56.9868C59.8413 3.4375 62.1571 5.74707 62.1571 8.59375ZM16.5404 35.5781L23.3479 18.9062H18.77L14.5369 30.293L14.0737 27.9834L12.5657 20.3135C12.318 19.25 11.5532 18.9492 10.6053 18.9062H3.63625L3.56085 19.2393C5.26273 19.6689 6.78149 20.292 8.10637 21.0762L11.9625 35.5781H16.5404ZM26.7085 35.5996L29.4229 18.9062H25.0928L22.3892 35.5996H26.7085ZM41.7777 30.1426C41.7992 28.2412 40.6359 26.791 38.1477 25.5986C36.629 24.8359 35.7026 24.3203 35.7026 23.5361C35.7242 22.8271 36.4889 22.0967 38.1908 22.0967C39.6019 22.0645 40.6359 22.3975 41.4114 22.7305L41.7992 22.9131L42.3916 19.3037C41.5407 18.9707 40.1835 18.5947 38.5139 18.5947C34.2377 18.5947 31.2325 20.8721 31.211 24.1162C31.1786 26.5117 33.3652 27.8438 35.0025 28.6494C36.672 29.4658 37.2429 30.0029 37.2429 30.7227C37.2214 31.8398 35.8857 32.3555 34.647 32.3555C32.9236 32.3555 31.9973 32.0869 30.5862 31.4639L30.0153 31.1953L29.4121 34.9443C30.4246 35.4062 32.2989 35.8145 34.2377 35.8359C38.7832 35.8467 41.7454 33.6016 41.7777 30.1426ZM56.9868 35.5996L53.4969 18.9062H50.147C49.113 18.9062 48.3267 19.207 47.885 20.292L41.4545 35.5996H46C46 35.5996 46.7433 33.5371 46.9048 33.0967H52.4629C52.5921 33.6875 52.9799 35.5996 52.9799 35.5996H56.9868Z" fill="#3C3C3C"/>
</g>
<defs>
<clipPath id="clip0">
<rect width="62.0431" height="55" fill="white" transform="translate(0.114014)"/>
</clipPath>
</defs>
</svg>
