<svg width="63" height="55" viewBox="0 0 63 55" fill="none" xmlns="http://www.w3.org/2000/svg">
<g clip-path="url(#clip0)">
<path d="M56.3002 21.0654C56.3002 20.2168 55.7078 19.7656 54.6198 19.7656H54.092V22.4404H54.5983C55.7078 22.4404 56.3002 21.9678 56.3002 21.0654ZM57.1188 3.4375H5.41623C2.56182 3.4375 0.245972 5.74707 0.245972 8.59375V46.4062C0.245972 49.2529 2.56182 51.5625 5.41623 51.5625H57.1188C59.9732 51.5625 62.2891 49.2529 62.2891 46.4062V8.59375C62.2891 5.74707 59.9732 3.4375 57.1188 3.4375ZM52.3686 18.3584C54.803 18.3584 58.0667 17.918 58.0667 20.9795C58.0667 22.333 57.3558 23.2031 56.0524 23.4717L58.8315 27.167H56.7203L54.329 23.6436H54.092V27.167H52.3686V18.3584ZM46.3474 18.3691H51.2269V19.873H48.0709V21.8281H51.1191V23.3105H48.0709V25.6953H51.2269V27.1777H46.3474V18.3691ZM38.9475 18.3691L41.3064 24.2988L43.6977 18.3691H45.5827L41.7588 27.4141H40.8325L37.0625 18.3691H38.9475ZM32.9263 18.0469C35.5868 18.0469 37.7303 20.1953 37.7303 22.8379C37.7303 25.4912 35.5761 27.6289 32.9263 27.6289C30.2658 27.6289 28.1223 25.4805 28.1223 22.8379C28.1223 20.1846 30.2765 18.0469 32.9263 18.0469ZM27.616 18.7021V20.7432C25.451 18.584 22.575 20.2383 22.575 22.7842C22.575 25.4697 25.5371 26.9199 27.616 24.8467V26.8877C24.4169 28.4238 20.7977 26.2754 20.7977 22.7842C20.7977 19.4326 24.3631 17.0908 27.616 18.7021ZM17.1462 25.8242C18.3742 25.8242 19.559 24.1807 16.7908 23.2031C15.1751 22.6123 14.615 21.9785 14.615 20.7646C14.615 18.2725 17.911 17.3916 19.9683 19.2285L19.0636 20.3887C17.9433 19.1426 16.3815 19.7227 16.3815 20.6572C16.3815 21.1299 16.6723 21.3984 17.7064 21.7637C19.6668 22.4727 20.2484 23.1064 20.2484 24.5137C20.2484 27.6826 16.0691 28.5312 14.1518 25.7275L15.2613 24.6641C15.6598 25.4268 16.3276 25.8242 17.1462 25.8242ZM6.21331 27.1777H3.69281V18.3691H6.21331C9.02464 18.3691 10.9635 20.1953 10.9635 22.7842C10.9635 24.7715 9.54166 27.1777 6.21331 27.1777ZM13.484 27.1777H11.7606V18.3691H13.484V27.1777ZM58.8422 46.5137C58.8422 47.3945 58.1098 48.125 57.2265 48.125H14.0333C34.4558 44.3008 55.2554 33.1719 58.8422 30.9375V46.5137ZM8.22756 20.582C7.66744 20.0557 6.97808 19.873 5.86863 19.873H5.41623V25.6953H5.86863C6.97808 25.6953 7.69976 25.4805 8.22756 25.0078C8.84152 24.4492 9.18621 23.6328 9.18621 22.7842C9.18621 21.9355 8.84152 21.1191 8.22756 20.582Z" fill="#3C3C3C"/>
</g>
<defs>
<clipPath id="clip0">
<rect width="62.0431" height="55" fill="white" transform="translate(0.245972)"/>
</clipPath>
</defs>
</svg>
