<svg width="63" height="55" viewBox="0 0 63 55" fill="none" xmlns="http://www.w3.org/2000/svg">
<g clip-path="url(#clip0)">
<path d="M52.1727 44.0752C52.1727 44.8057 51.6772 45.332 50.9663 45.332C50.2338 45.332 49.7599 44.7734 49.7599 44.0752C49.7599 43.377 50.2338 42.8184 50.9663 42.8184C51.6772 42.8184 52.1727 43.377 52.1727 44.0752ZM18.6952 42.8184C17.9305 42.8184 17.4888 43.377 17.4888 44.0752C17.4888 44.7734 17.9305 45.332 18.6952 45.332C19.3954 45.332 19.8693 44.8057 19.8693 44.0752C19.8585 43.377 19.3954 42.8184 18.6952 42.8184ZM31.3516 42.7861C30.7699 42.7861 30.4145 43.1621 30.3283 43.7207H32.3857C32.2887 43.1084 31.9117 42.7861 31.3516 42.7861ZM42.9631 42.8184C42.2307 42.8184 41.7891 43.377 41.7891 44.0752C41.7891 44.7734 42.2307 45.332 42.9631 45.332C43.6956 45.332 44.1695 44.8057 44.1695 44.0752C44.1695 43.377 43.6956 42.8184 42.9631 42.8184ZM54.37 45.6221C54.37 45.6543 54.4023 45.6758 54.4023 45.7402C54.4023 45.7725 54.37 45.7939 54.37 45.8584C54.3377 45.8906 54.3377 45.9121 54.3162 45.9443C54.2838 45.9766 54.2623 45.998 54.1977 45.998C54.1654 46.0303 54.1438 46.0303 54.0792 46.0303C54.0469 46.0303 54.0253 46.0303 53.9607 45.998C53.9284 45.998 53.9068 45.9658 53.8745 45.9443C53.8422 45.9121 53.8207 45.8906 53.8207 45.8584C53.7884 45.8047 53.7884 45.7725 53.7884 45.7402C53.7884 45.6865 53.7884 45.6543 53.8207 45.6221C53.8207 45.5684 53.853 45.5361 53.8745 45.5039C53.9068 45.4717 53.9284 45.4717 53.9607 45.4502C54.0146 45.418 54.0469 45.418 54.0792 45.418C54.133 45.418 54.1654 45.418 54.1977 45.4502C54.2515 45.4824 54.2838 45.4824 54.3162 45.5039C54.3485 45.5254 54.3377 45.5684 54.37 45.6221ZM54.133 45.7725C54.1869 45.7725 54.1869 45.7402 54.2192 45.7402C54.2515 45.708 54.2515 45.6865 54.2515 45.6543C54.2515 45.6221 54.2515 45.6006 54.2192 45.5684C54.1869 45.5684 54.1654 45.5361 54.1007 45.5361H53.9284V45.9121H54.0146V45.7617H54.0469L54.1654 45.9121H54.2515L54.133 45.7725ZM62.2008 8.70117V46.5137C62.2008 49.3604 59.885 51.6699 57.0305 51.6699H5.32797C2.47356 51.6699 0.157715 49.3604 0.157715 46.5137V8.70117C0.157715 5.85449 2.47356 3.54492 5.32797 3.54492H57.0305C59.885 3.54492 62.2008 5.85449 62.2008 8.70117ZM7.05139 23.6973C7.05139 31.915 13.7404 38.5752 21.9697 38.5752C24.8995 38.5752 27.7755 37.6943 30.2098 36.0938C22.3575 29.7236 22.4114 17.7031 30.2098 11.333C27.7755 9.72168 24.8995 8.85156 21.9697 8.85156C13.7404 8.84082 7.05139 15.5117 7.05139 23.6973ZM31.1793 35.3848C38.7731 29.4766 38.7408 17.9609 31.1793 12.0205C23.6178 17.9609 23.5854 29.4873 31.1793 35.3848ZM15.8516 43.5811C15.8516 42.6465 15.2376 42.0342 14.2682 42.002C13.7727 42.002 13.2449 42.1523 12.8895 42.7002C12.631 42.2598 12.1893 42.002 11.5754 42.002C11.1661 42.002 10.7567 42.1523 10.4336 42.582V42.1094H9.55035V46.0518H10.4336C10.4336 44.0215 10.1643 42.8076 11.403 42.8076C12.5017 42.8076 12.2863 43.9033 12.2863 46.0518H13.1372C13.1372 44.0859 12.8679 42.8076 14.1066 42.8076C15.2053 42.8076 14.9899 43.8818 14.9899 46.0518H15.8731V43.5811H15.8516ZM20.6879 42.1094H19.837V42.582C19.5462 42.2275 19.1369 42.002 18.5768 42.002C17.4673 42.002 16.6164 42.8828 16.6164 44.0752C16.6164 45.2783 17.4673 46.1484 18.5768 46.1484C19.1369 46.1484 19.5462 45.9443 19.837 45.5684V46.0625H20.6879V42.1094ZM25.0504 44.8594C25.0504 43.248 22.5837 43.9785 22.5837 43.2266C22.5837 42.6143 23.8655 42.7109 24.5764 43.1084L24.9319 42.4102C23.9194 41.7549 21.6789 41.7656 21.6789 43.291C21.6789 44.8271 24.1456 44.1826 24.1456 44.9023C24.1456 45.5791 22.6914 45.5254 21.9159 44.9883L21.5389 45.665C22.7453 46.4814 25.0504 46.3096 25.0504 44.8594ZM28.8634 45.8584L28.6264 45.1279C28.2171 45.3535 27.3123 45.6006 27.3123 44.6875V42.9043H28.7234V42.1094H27.3123V40.9062H26.4291V42.1094H25.6105V42.8936H26.4291V44.6875C26.4291 46.5781 28.2925 46.2344 28.8634 45.8584ZM30.296 44.4189H33.2581C33.2581 42.6787 32.4611 41.9912 31.3839 41.9912C30.2421 41.9912 29.4235 42.8398 29.4235 44.0645C29.4235 46.2666 31.8579 46.6318 33.0642 45.5898L32.6549 44.9453C31.8148 45.6328 30.5437 45.5684 30.296 44.4189ZM36.6619 42.1094C36.1664 41.8945 35.4124 41.916 35.0246 42.582V42.1094H34.1414V46.0518H35.0246V43.8281C35.0246 42.582 36.0479 42.7432 36.4034 42.9258L36.6619 42.1094ZM37.8036 44.0752C37.8036 42.8506 39.0531 42.4531 40.0333 43.1729L40.4426 42.4746C39.1932 41.4971 36.9204 42.0342 36.9204 44.0859C36.9204 46.2129 39.3332 46.6426 40.4426 45.6973L40.0333 44.999C39.0424 45.6973 37.8036 45.2783 37.8036 44.0752ZM44.9882 42.1094H44.1049V42.582C43.2109 41.4004 40.8843 42.0664 40.8843 44.0752C40.8843 46.1377 43.297 46.7285 44.1049 45.5684V46.0625H44.9882V42.1094ZM48.6181 42.1094C48.3596 41.9805 47.4333 41.7979 46.9809 42.582V42.1094H46.1299V46.0518H46.9809V43.8281C46.9809 42.6465 47.9503 42.7217 48.3596 42.9258L48.6181 42.1094ZM52.959 40.5088H52.108V42.582C51.2248 41.4111 48.8874 42.0342 48.8874 44.0752C48.8874 46.1592 51.3109 46.7178 52.108 45.5684V46.0625H52.959V40.5088ZM53.7776 32.4414V32.9355H53.8638V32.4414H54.0684V32.3555H53.5729V32.4414H53.7776ZM54.4885 45.7402C54.4885 45.6865 54.4885 45.6221 54.4562 45.5684C54.4239 45.5361 54.4023 45.4824 54.37 45.4502C54.3377 45.418 54.2838 45.3965 54.2515 45.3643C54.1977 45.3643 54.133 45.332 54.0792 45.332C54.0469 45.332 53.993 45.3643 53.9284 45.3643C53.8745 45.3965 53.8422 45.418 53.8099 45.4502C53.7561 45.4824 53.7237 45.5361 53.7237 45.5684C53.6914 45.6221 53.6914 45.6865 53.6914 45.7402C53.6914 45.7725 53.6914 45.8262 53.7237 45.8906C53.7237 45.9229 53.7561 45.9766 53.8099 46.0088C53.8422 46.041 53.8638 46.0625 53.9284 46.0947C53.9822 46.127 54.0469 46.127 54.0792 46.127C54.133 46.127 54.1977 46.127 54.2515 46.0947C54.2838 46.0625 54.3377 46.041 54.37 46.0088C54.4023 45.9766 54.4239 45.9229 54.4562 45.8906C54.4885 45.8262 54.4885 45.7725 54.4885 45.7402ZM54.8332 32.3447H54.6824L54.51 32.7207L54.3377 32.3447H54.1869V32.9248H54.2731V32.4844L54.4454 32.8604H54.5639L54.7147 32.4844V32.9248H54.8332V32.3447ZM55.3071 23.6973C55.3071 15.5117 48.6181 8.84082 40.3888 8.84082C37.459 8.84082 34.583 9.72168 32.1487 11.3223C39.9148 17.6924 40.0333 29.7451 32.1487 36.083C34.583 37.6943 37.4805 38.5645 40.3888 38.5645C48.6181 38.5752 55.3071 31.915 55.3071 23.6973Z" fill="#3C3C3C"/>
</g>
<defs>
<clipPath id="clip0">
<rect width="62.0431" height="55" fill="white" transform="translate(0.157715)"/>
</clipPath>
</defs>
</svg>
