<svg width="55" height="63" viewBox="0 0 55 63" fill="none" xmlns="http://www.w3.org/2000/svg">
<g clip-path="url(#clip0)">
<path d="M49.1071 3.9375H5.89286C4.32997 3.9375 2.8311 4.55976 1.72598 5.6674C0.620853 6.77504 0 8.27732 0 9.84375L0 53.1562C0 54.7227 0.620853 56.225 1.72598 57.3326C2.8311 58.4402 4.32997 59.0625 5.89286 59.0625H22.7427V40.3212H15.0084V31.5H22.7427V24.7767C22.7427 17.1294 27.2852 12.9052 34.2424 12.9052C37.5743 12.9052 41.0585 13.5007 41.0585 13.5007V21.0066H37.2195C33.4371 21.0066 32.2573 23.3592 32.2573 25.7722V31.5H40.7012L39.3508 40.3212H32.2573V59.0625H49.1071C50.67 59.0625 52.1689 58.4402 53.274 57.3326C54.3791 56.225 55 54.7227 55 53.1562V9.84375C55 8.27732 54.3791 6.77504 53.274 5.6674C52.1689 4.55976 50.67 3.9375 49.1071 3.9375V3.9375Z" fill="white"/>
</g>
<defs>
<clipPath id="clip0">
<rect width="55" height="63" fill="white"/>
</clipPath>
</defs>
</svg>
