<svg width="54" height="63" viewBox="0 0 54 63" fill="none" xmlns="http://www.w3.org/2000/svg">
<path d="M27 24.9367C25.7285 24.9372 24.4857 25.3225 23.4287 26.044C22.3717 26.7655 21.548 27.7907 21.0618 28.99C20.5755 30.1894 20.4485 31.509 20.6969 32.7819C20.9452 34.0549 21.5577 35.2242 22.457 36.1418C23.3563 37.0595 24.5019 37.6843 25.749 37.9374C26.9961 38.1904 28.2887 38.0603 29.4634 37.5635C30.6381 37.0666 31.642 36.2254 32.3484 35.1461C33.0548 34.0669 33.4318 32.798 33.4318 31.5C33.4305 29.7593 32.7524 28.0903 31.5464 26.8596C30.3404 25.629 28.7052 24.9373 27 24.9367V24.9367ZM42.032 19.8918C41.7047 19.045 41.2104 18.2759 40.5799 17.6323C39.9494 16.9886 39.196 16.484 38.3665 16.1499C35.8353 15.1298 29.8085 15.3587 27 15.3587C24.1915 15.3587 18.1708 15.1212 15.6323 16.1499C14.8028 16.484 14.0494 16.9886 13.4189 17.6323C12.7883 18.2759 12.2941 19.045 11.9668 19.8918C10.9688 22.4757 11.1917 28.6342 11.1917 31.4988C11.1917 34.3633 10.9688 40.5144 11.9716 43.107C12.2989 43.9538 12.7932 44.7228 13.4237 45.3665C14.0542 46.0102 14.8076 46.5147 15.6371 46.8489C18.1683 47.8689 24.1951 47.6401 27.0048 47.6401C29.8145 47.6401 35.8329 47.8775 38.3713 46.8489C39.2008 46.5147 39.9542 46.0102 40.5847 45.3665C41.2153 44.7228 41.7095 43.9538 42.0368 43.107C43.0433 40.523 42.8119 34.3645 42.8119 31.5C42.8119 28.6355 43.0433 22.4856 42.0368 19.893L42.032 19.8918ZM27 41.5898C25.0451 41.5898 23.1342 40.9981 21.5088 39.8894C19.8834 38.7807 18.6165 37.2049 17.8684 35.3612C17.1204 33.5175 16.9246 31.4888 17.306 29.5316C17.6874 27.5743 18.6287 25.7765 20.011 24.3654C21.3933 22.9543 23.1544 21.9933 25.0717 21.604C26.989 21.2147 28.9764 21.4145 30.7824 22.1782C32.5885 22.9419 34.1321 24.2351 35.2182 25.8944C36.3042 27.5536 36.8839 29.5044 36.8839 31.5C36.8855 32.8255 36.6309 34.1382 36.1348 35.3631C35.6386 36.588 34.9107 37.701 33.9925 38.6382C33.0744 39.5755 31.9842 40.3186 30.7843 40.8251C29.5844 41.3316 28.2984 41.5915 27 41.5898V41.5898ZM37.2913 23.342C36.835 23.3422 36.3888 23.2043 36.0093 22.9457C35.6297 22.687 35.3338 22.3193 35.159 21.889C34.9842 21.4587 34.9384 20.9851 35.0273 20.5282C35.1161 20.0712 35.3358 19.6515 35.6584 19.322C35.981 18.9925 36.3921 18.7681 36.8396 18.6771C37.2872 18.5861 37.7511 18.6327 38.1727 18.8109C38.5944 18.9891 38.9547 19.291 39.2083 19.6783C39.4619 20.0656 39.5972 20.521 39.5972 20.9869C39.5985 21.2962 39.5399 21.6028 39.4248 21.889C39.3098 22.1752 39.1405 22.4354 38.9267 22.6546C38.7129 22.8739 38.4589 23.0479 38.179 23.1667C37.8992 23.2855 37.5992 23.3468 37.2962 23.3469L37.2913 23.342ZM48.2143 3.9375H5.78571C4.25125 3.9375 2.77963 4.55976 1.6946 5.6674C0.609565 6.77504 0 8.27732 0 9.84375L0 53.1562C0 54.7227 0.609565 56.225 1.6946 57.3326C2.77963 58.4402 4.25125 59.0625 5.78571 59.0625H48.2143C49.7488 59.0625 51.2204 58.4402 52.3054 57.3326C53.3904 56.225 54 54.7227 54 53.1562V9.84375C54 8.27732 53.3904 6.77504 52.3054 5.6674C51.2204 4.55976 49.7488 3.9375 48.2143 3.9375V3.9375ZM46.1507 39.6211C45.9952 42.7748 45.2901 45.5692 43.0349 47.8652C40.7796 50.1613 38.0447 50.8959 34.959 51.046C31.7756 51.2293 22.2316 51.2293 19.0483 51.046C15.9589 50.8873 13.2312 50.1662 10.9724 47.8652C8.71353 45.5643 8.00357 42.7686 7.85652 39.6211C7.67692 36.3702 7.67692 26.6261 7.85652 23.3789C8.01201 20.2252 8.70871 17.4308 10.9724 15.1348C13.236 12.8387 15.971 12.1127 19.0483 11.9626C22.2316 11.7793 31.7756 11.7793 34.959 11.9626C38.0483 12.1213 40.7845 12.8424 43.0349 15.1434C45.2853 17.4444 46.0037 20.24 46.1507 23.3937C46.3303 26.6323 46.3303 36.3677 46.1507 39.6211Z" fill="white"/>
</svg>
